<?xml version="1.0" encoding="UTF-8"?>
<svg id="Layer_2" xmlns="http://www.w3.org/2000/svg" viewBox="0 0 103 81.01">
  <defs>
    <style>
      .cls-1 {
        fill: gray;
      }
    </style>
  </defs>
  <g id="Layer_4">
    <g>
      <path class="cls-1" d="M51.5,35.98L103,6.96v-.69c0-3.46-2.81-6.27-6.27-6.27H6.27C2.81,0,0,2.81,0,6.27v.69l51.5,29.03Z"/>
      <path class="cls-1" d="M51.5,44.03L0,15v59.74c0,3.46,2.81,6.27,6.27,6.27h90.46c3.46,0,6.27-2.81,6.27-6.27V15l-51.5,29.03ZM52,62.01c-3.31,0-6-2.69-6-6s2.69-6,6-6,6,2.69,6,6-2.69,6-6,6Z"/>
    </g>
  </g>
</svg>