<?xml version="1.0" encoding="UTF-8"?>
<svg id="Layer_2" xmlns="http://www.w3.org/2000/svg" viewBox="0 0 103.55 117.3">
  <defs>
    <style>
      .cls-1 {
        font-family: Baskerville, Baskerville;
        font-size: 28px;
      }

      .cls-1, .cls-2 {
        fill: #fff;
      }

      .cls-3 {
        stroke: #666;
        stroke-width: .25px;
      }

      .cls-3, .cls-2, .cls-4 {
        stroke-miterlimit: 10;
      }

      .cls-2 {
        stroke: #fff;
      }

      .cls-4 {
        stroke: #000;
      }

      .cls-5 {
        letter-spacing: -.03em;
      }

      .cls-6 {
        letter-spacing: 0em;
      }
    </style>
  </defs>
  <g id="Layer_4">
    <path class="cls-4" d="M92.37,14.29v3.33c0,4.76-3.87,8.62-8.62,8.62s-8.62-3.87-8.62-8.62v-3.38H28.31v3.38c0,4.69-3.81,8.5-8.5,8.5s-8.5-3.81-8.5-8.5v-3.34c-6.03.37-10.81,5.37-10.81,11.49v79.49c0,6.37,5.16,11.53,11.53,11.53h79.49c6.37,0,11.53-5.16,11.53-11.53V25.78c0-6.08-4.71-11.05-10.68-11.49Z"/>
    <text class="cls-1" transform="translate(33.06 35.35)"><tspan class="cls-5" x="0" y="0">J</tspan><tspan class="cls-6" x="9.15" y="0">an</tspan></text>
    <path class="cls-2" d="M6.76,45.12v55.47c0,6.37,5.16,11.53,11.53,11.53h67.49c6.37,0,11.53-5.16,11.53-11.53v-55.47H6.76Z"/>
    <rect class="cls-3" x="15.31" y=".13" width="9" height="22" rx="4.5" ry="4.5"/>
    <rect class="cls-3" x="79.31" y=".12" width="9" height="22" rx="4.5" ry="4.5"/>
    <text/>
    <g>
      <circle cx="19.53" cy="78.63" r="6.5"/>
      <circle cx="52.53" cy="78.63" r="6.5"/>
      <circle cx="84.53" cy="78.63" r="6.5"/>
    </g>
    <circle cx="52.53" cy="55.12" r="6.5"/>
    <circle cx="84.53" cy="55.12" r="6.5"/>
    <circle cx="18.81" cy="102.63" r="6.5"/>
    <circle cx="51.81" cy="102.63" r="6.5"/>
  </g>
</svg>