<?xml version="1.0" encoding="UTF-8"?>
<svg id="Layer_2" xmlns="http://www.w3.org/2000/svg" viewBox="0 0 103.55 114.3">
  <defs>
    <style>
      .cls-1 {
        font-family: Baskerville, Baskerville;
        font-size: 28px;
      }

      .cls-1, .cls-2 {
        fill: #fff;
      }

      .cls-3 {
        stroke: #666;
        stroke-width: .25px;
      }

      .cls-3, .cls-2, .cls-4 {
        stroke-miterlimit: 10;
      }

      .cls-2 {
        stroke: #fff;
      }

      .cls-4 {
        stroke: #000;
      }

      .cls-5 {
        letter-spacing: -.03em;
      }

      .cls-6 {
        letter-spacing: 0em;
      }

      .cls-7 {
        font-family: Skia-Regular, Skia;
        font-size: 12px;
        font-variation-settings: 'wght' 1, 'wdth' 1;
      }
    </style>
  </defs>
  <g id="Layer_4">
    <g>
      <path class="cls-4" d="M91.52,11.25h-1.28v3.38c0,3.58-2.92,6.5-6.5,6.5s-6.5-2.92-6.5-6.5v-3.38H26.31v3.38c0,3.58-2.92,6.5-6.5,6.5s-6.5-2.92-6.5-6.5v-3.38h-1.28C5.66,11.25.5,16.41.5,22.78v79.49c0,6.37,5.16,11.53,11.53,11.53h79.49c6.37,0,11.53-5.16,11.53-11.53V22.78c0-6.37-5.16-11.53-11.53-11.53Z"/>
      <text class="cls-1" transform="translate(33.06 32.35)"><tspan class="cls-5" x="0" y="0">J</tspan><tspan class="cls-6" x="9.15" y="0">an</tspan></text>
      <path class="cls-2" d="M6.76,42.12v55.47c0,6.37,5.16,11.53,11.53,11.53h67.49c6.37,0,11.53-5.16,11.53-11.53v-55.47H6.76Z"/>
      <text class="cls-7" transform="translate(45.31 56.12)"><tspan x="0" y="0">1</tspan></text>
      <text class="cls-7" transform="translate(62.31 56.13)"><tspan x="0" y="0">2</tspan></text>
      <text class="cls-7" transform="translate(80.31 56.13)"><tspan x="0" y="0">3</tspan></text>
      <text class="cls-7" transform="translate(10.31 78.13)"><tspan x="0" y="0">4</tspan></text>
      <text class="cls-7" transform="translate(27.31 78.13)"><tspan x="0" y="0">5</tspan></text>
      <text class="cls-7" transform="translate(45.31 78.13)"><tspan x="0" y="0">6</tspan></text>
      <text class="cls-7" transform="translate(62.31 78.13)"><tspan x="0" y="0">7</tspan></text>
      <text class="cls-7" transform="translate(79.31 78.13)"><tspan x="0" y="0">8</tspan></text>
      <text class="cls-7" transform="translate(10.31 99.12)"><tspan x="0" y="0">9</tspan></text>
      <text class="cls-7" transform="translate(27.31 99.13)"><tspan x="0" y="0">10</tspan></text>
      <text class="cls-7" transform="translate(45.31 99.12)"><tspan x="0" y="0">11</tspan></text>
      <rect class="cls-3" x="15.31" y=".12" width="9" height="19" rx="4.5" ry="4.5"/>
      <rect class="cls-3" x="79.24" y=".12" width="9" height="19" rx="4.5" ry="4.5" transform="translate(167.48 19.25) rotate(-180)"/>
    </g>
  </g>
</svg>