<?xml version="1.0" encoding="UTF-8"?>
<svg id="Layer_2" xmlns="http://www.w3.org/2000/svg" viewBox="0 0 103.91 103.49">
  <defs>
    <style>
      .cls-1 {
        fill: #fff;
      }

      .cls-2 {
        fill: none;
        stroke: #000;
        stroke-miterlimit: 10;
        stroke-width: 2px;
      }
    </style>
  </defs>
  <g id="Layer_1-2" data-name="Layer_1">
    <path d="M90.2,53.6L53.99,21.51c-.89-.79-2.23-.8-3.13-.02L13.72,53.67c-.22.19-.44.37-.67.53-.96.69-1.55,1.77-1.55,2.95v40.77c0,3.08,2.56,5.57,5.71,5.57h18.5c.79,0,1.42-.61,1.42-1.35v-17.06c0-5.85,4.86-10.59,10.85-10.59h8.03c5.99,0,10.85,4.74,10.85,10.59v17.06c0,.75.64,1.35,1.42,1.35h18.5c3.15,0,5.71-2.49,5.71-5.57v-40.77c0-1.17-.58-2.26-1.53-2.94-.27-.19-.52-.39-.77-.61Z"/>
    <g>
      <path d="M100.55,41.4l-14.04-12.44s-.02-.02-.02-.03v-12.86c0-1.42-1.15-2.57-2.57-2.57h-5.85c-1.42,0-2.57,1.15-2.57,2.57v3.02s-.05.06-.08.03L56.81,2.63s-.1-.08-.15-.12c-.1-.08-.2-.16-.3-.24-.07-.05-.15-.1-.22-.15-.1-.07-.21-.14-.31-.2-.08-.05-.17-.09-.25-.14-.1-.05-.2-.11-.31-.16-.09-.04-.19-.08-.28-.12-.1-.04-.2-.08-.29-.12-.1-.04-.21-.07-.31-.1-.1-.03-.19-.06-.29-.08-.11-.03-.21-.05-.32-.07-.1-.02-.2-.04-.29-.05-.11-.02-.21-.03-.32-.04-.1-.01-.21-.02-.31-.03-.1,0-.2,0-.3,0-.11,0-.22,0-.33,0-.1,0-.19.01-.29.02-.11,0-.23.02-.34.04-.09.01-.18.03-.27.05-.11.02-.23.04-.34.07-.09.02-.18.05-.27.07-.11.03-.22.06-.33.1-.1.03-.19.07-.28.11-.1.04-.2.08-.3.12-.1.05-.2.1-.3.15-.09.04-.17.09-.26.14-.11.06-.21.13-.32.2-.07.05-.15.1-.22.15-.1.08-.21.16-.31.24-.05.04-.1.08-.15.12L3.24,41.58c-2.71,2.35-3.01,6.46-.66,9.17,1.29,1.48,3.09,2.24,4.92,2.24,1.51,0,3.02-.52,4.25-1.59L50.75,17.61c.97-.84,2.42-.84,3.39.02l38.05,33.73c1.24,1.1,2.78,1.64,4.31,1.64,1.66,0,3.31-.63,4.56-1.86,2.72-2.68,2.35-7.2-.5-9.73Z"/>
      <path class="cls-2" d="M100.55,41.4l-14.04-12.44s-.02-.02-.02-.03v-12.86c0-1.42-1.15-2.57-2.57-2.57h-5.85c-1.42,0-2.57,1.15-2.57,2.57v3.02s-.05.06-.08.03L56.81,2.63s-.1-.08-.15-.12c-.1-.08-.2-.16-.3-.24-.07-.05-.15-.1-.22-.15-.1-.07-.21-.14-.31-.2-.08-.05-.17-.09-.25-.14-.1-.05-.2-.11-.31-.16-.09-.04-.19-.08-.28-.12-.1-.04-.2-.08-.29-.12-.1-.04-.21-.07-.31-.1-.1-.03-.19-.06-.29-.08-.11-.03-.21-.05-.32-.07-.1-.02-.2-.04-.29-.05-.11-.02-.21-.03-.32-.04-.1-.01-.21-.02-.31-.03-.1,0-.2,0-.3,0-.11,0-.22,0-.33,0-.1,0-.19.01-.29.02-.11,0-.23.02-.34.04-.09.01-.18.03-.27.05-.11.02-.23.04-.34.07-.09.02-.18.05-.27.07-.11.03-.22.06-.33.1-.1.03-.19.07-.28.11-.1.04-.2.08-.3.12-.1.05-.2.1-.3.15-.09.04-.17.09-.26.14-.11.06-.21.13-.32.2-.07.05-.15.1-.22.15-.1.08-.21.16-.31.24-.05.04-.1.08-.15.12L3.24,41.58c-2.71,2.35-3.01,6.46-.66,9.17,1.29,1.48,3.09,2.24,4.92,2.24,1.51,0,3.02-.52,4.25-1.59L50.75,17.61c.97-.84,2.42-.84,3.39.02l38.05,33.73c1.24,1.1,2.78,1.64,4.31,1.64,1.66,0,3.31-.63,4.56-1.86,2.72-2.68,2.35-7.2-.5-9.73Z"/>
      <path d="M100.55,41.4l-14.04-12.44s-.02-.02-.02-.03v-12.86c0-1.42-1.15-2.57-2.57-2.57h-5.85c-1.42,0-2.57,1.15-2.57,2.57v3.02s-.05.06-.08.03L56.81,2.63s-.1-.08-.15-.12c-.1-.08-.2-.16-.3-.24-.07-.05-.15-.1-.22-.15-.1-.07-.21-.14-.31-.2-.08-.05-.17-.09-.25-.14-.1-.05-.2-.11-.31-.16-.09-.04-.19-.08-.28-.12-.1-.04-.2-.08-.29-.12-.1-.04-.21-.07-.31-.1-.1-.03-.19-.06-.29-.08-.11-.03-.21-.05-.32-.07-.1-.02-.2-.04-.29-.05-.11-.02-.21-.03-.32-.04-.1-.01-.21-.02-.31-.03-.1,0-.2,0-.3,0-.11,0-.22,0-.33,0-.1,0-.19.01-.29.02-.11,0-.23.02-.34.04-.09.01-.18.03-.27.05-.11.02-.23.04-.34.07-.09.02-.18.05-.27.07-.11.03-.22.06-.33.1-.1.03-.19.07-.28.11-.1.04-.2.08-.3.12-.1.05-.2.1-.3.15-.09.04-.17.09-.26.14-.11.06-.21.13-.32.2-.07.05-.15.1-.22.15-.1.08-.21.16-.31.24-.05.04-.1.08-.15.12L3.24,41.58c-2.71,2.35-3.01,6.46-.66,9.17,1.29,1.48,3.09,2.24,4.92,2.24,1.51,0,3.02-.52,4.25-1.59L50.75,17.61c.97-.84,2.42-.84,3.39.02l38.05,33.73c1.24,1.1,2.78,1.64,4.31,1.64,1.66,0,3.31-.63,4.56-1.86,2.72-2.68,2.35-7.2-.5-9.73Z"/>
      <path d="M100.55,41.4l-14.04-12.44s-.02-.02-.02-.03v-12.86c0-1.42-1.15-2.57-2.57-2.57h-5.85c-1.42,0-2.57,1.15-2.57,2.57v3.02s-.05.06-.08.03L56.81,2.63s-.1-.08-.15-.12c-.1-.08-.2-.16-.3-.24-.07-.05-.15-.1-.22-.15-.1-.07-.21-.14-.31-.2-.08-.05-.17-.09-.25-.14-.1-.05-.2-.11-.31-.16-.09-.04-.19-.08-.28-.12-.1-.04-.2-.08-.29-.12-.1-.04-.21-.07-.31-.1-.1-.03-.19-.06-.29-.08-.11-.03-.21-.05-.32-.07-.1-.02-.2-.04-.29-.05-.11-.02-.21-.03-.32-.04-.1-.01-.21-.02-.31-.03-.1,0-.2,0-.3,0-.11,0-.22,0-.33,0-.1,0-.19.01-.29.02-.11,0-.23.02-.34.04-.09.01-.18.03-.27.05-.11.02-.23.04-.34.07-.09.02-.18.05-.27.07-.11.03-.22.06-.33.1-.1.03-.19.07-.28.11-.1.04-.2.08-.3.12-.1.05-.2.1-.3.15-.09.04-.17.09-.26.14-.11.06-.21.13-.32.2-.07.05-.15.1-.22.15-.1.08-.21.16-.31.24-.05.04-.1.08-.15.12L3.24,41.58c-2.71,2.35-3.01,6.46-.66,9.17,1.29,1.48,3.09,2.24,4.92,2.24,1.51,0,3.02-.52,4.25-1.59L50.75,17.61c.97-.84,2.42-.84,3.39.02l38.05,33.73c1.24,1.1,2.78,1.64,4.31,1.64,1.66,0,3.31-.63,4.56-1.86,2.72-2.68,2.35-7.2-.5-9.73Z"/>
    </g>
  </g>
  <g id="Layer_4">
    <g>
      <circle class="cls-1" cx="52.5" cy="61.49" r="6.12"/>
      <path d="M52.5,56.24c2.89,0,5.25,2.36,5.25,5.25s-2.36,5.25-5.25,5.25-5.25-2.36-5.25-5.25,2.36-5.25,5.25-5.25M52.5,54.49c-3.87,0-7,3.13-7,7s3.13,7,7,7,7-3.13,7-7-3.13-7-7-7h0Z"/>
    </g>
  </g>
</svg>