<?xml version="1.0" encoding="UTF-8"?>
<svg id="Layer_2" xmlns="http://www.w3.org/2000/svg" viewBox="0 0 102.29 102.29">
  <defs>
    <style>
      .cls-1 {
        fill: none;
        stroke: #fff;
        stroke-miterlimit: 10;
        stroke-width: 1.75px;
      }
    </style>
  </defs>
  <g id="Layer_1-2" data-name="Layer_1">
    <path class="cls-1" d="M100.61,61.73l-7.43-4.05c-1.01-.55-1.63-1.6-1.63-2.75v-7.78c0-1.15.63-2.2,1.63-2.75l7.43-4.05c.2-.11.4-.18.61-.24-1.33-6.05-3.72-11.7-6.98-16.74-.2.11-.41.21-.64.28l-8.11,2.39c-1.1.32-2.29.02-3.1-.79l-5.5-5.5c-.81-.81-1.11-2-.79-3.1l2.39-8.11c.06-.21.16-.41.26-.6-5.05-3.24-10.71-5.61-16.77-6.92-.06.22-.14.45-.26.65l-4.05,7.43c-.55,1.01-1.6,1.63-2.75,1.63h-7.78c-1.15,0-2.2-.63-2.75-1.63l-4.05-7.43c-.11-.2-.18-.4-.24-.61-6.05,1.33-11.7,3.72-16.74,6.98.11.2.21.41.28.64l2.39,8.11c.32,1.1.02,2.29-.79,3.1l-5.5,5.5c-.81.81-2,1.11-3.1.79l-8.11-2.39c-.21-.06-.41-.16-.6-.26-3.24,5.05-5.61,10.71-6.92,16.77.22.06.45.14.65.26l7.43,4.05c1.01.55,1.63,1.6,1.63,2.75v7.78c0,1.15-.63,2.2-1.63,2.75l-7.43,4.05c-.2.11-.4.18-.61.24,1.33,6.05,3.72,11.7,6.98,16.74.2-.11.41-.21.64-.28l8.11-2.39c1.1-.32,2.29-.02,3.1.79l5.5,5.5c.81.81,1.11,2,.79,3.1l-2.39,8.11c-.06.21-.16.41-.26.6,5.05,3.24,10.71,5.61,16.77,6.92.06-.22.14-.45.26-.65l4.05-7.43c.55-1.01,1.6-1.63,2.75-1.63h7.78c1.15,0,2.2.63,2.75,1.63l4.05,7.43c.11.2.18.4.24.61,6.05-1.33,11.7-3.72,16.74-6.98-.11-.2-.21-.41-.28-.64l-2.39-8.11c-.32-1.1-.02-2.29.79-3.1l5.5-5.5c.81-.81,2-1.11,3.1-.79l8.11,2.39c.21.06.41.16.6.26,3.24-5.05,5.61-10.71,6.92-16.77-.22-.06-.45-.14-.65-.26ZM53.13,75.47c-15.03,1.19-27.49-11.27-26.3-26.3.93-11.83,10.51-21.41,22.34-22.34,15.03-1.19,27.49,11.27,26.3,26.3-.93,11.83-10.51,21.41-22.34,22.34Z"/>
  </g>
</svg>