<?xml version="1.0" encoding="UTF-8"?>
<svg id="Layer_2" xmlns="http://www.w3.org/2000/svg" viewBox="0 0 85.06 85.06">
  <g id="Layer_4">
    <g>
      <path d="M42.53,55.91c-7.38,0-13.38-6-13.38-13.38s6-13.38,13.38-13.38,13.38,6,13.38,13.38-6,13.38-13.38,13.38Z"/>
      <path d="M42.53,30.16c6.82,0,12.38,5.55,12.38,12.38s-5.55,12.38-12.38,12.38-12.38-5.55-12.38-12.38,5.55-12.38,12.38-12.38M42.53,28.16c-7.94,0-14.38,6.44-14.38,14.38s6.44,14.38,14.38,14.38,14.38-6.44,14.38-14.38-6.44-14.38-14.38-14.38h0Z"/>
    </g>
    <g>
      <path d="M59.69,28.23c-.43,0-.84-.17-1.15-.48l-1.23-1.23c-.63-.64-.63-1.67,0-2.3l11.67-11.67c.31-.31.72-.48,1.15-.48s.84.17,1.15.48l1.23,1.23c.63.63.63,1.67,0,2.3l-11.67,11.67c-.31.31-.72.48-1.15.48Z"/>
      <path d="M70.13,13.07c.1,0,.28.02.45.18l1.23,1.23c.25.25.25.64,0,.89l-11.67,11.67c-.16.16-.35.18-.45.18s-.28-.02-.44-.18l-1.23-1.23c-.16-.16-.18-.35-.18-.44s.02-.28.18-.45l11.67-11.67c.16-.16.35-.18.45-.18M70.13,11.07c-.67,0-1.35.26-1.86.77l-11.67,11.67c-1.03,1.03-1.03,2.69,0,3.72l1.23,1.23c.51.51,1.19.77,1.86.77s1.35-.26,1.86-.77l11.67-11.67c1.03-1.03,1.03-2.69,0-3.72l-1.23-1.23c-.51-.51-1.19-.77-1.86-.77h0Z"/>
    </g>
    <g>
      <path d="M41.66,1h1.74c.9,0,1.63.73,1.63,1.63v16.5c0,.9-.73,1.63-1.63,1.63h-1.74c-.9,0-1.63-.73-1.63-1.63V2.63c0-.9.73-1.63,1.63-1.63Z"/>
      <path d="M43.4,2c.35,0,.63.28.63.63v16.5c0,.35-.28.63-.63.63h-1.74c-.35,0-.63-.28-.63-.63V2.63c0-.35.28-.63.63-.63h1.74M43.4,0h-1.74c-1.45,0-2.63,1.18-2.63,2.63v16.5c0,1.45,1.18,2.63,2.63,2.63h1.74c1.45,0,2.63-1.18,2.63-2.63V2.63c0-1.45-1.18-2.63-2.63-2.63h0Z"/>
    </g>
    <g>
      <path d="M25.37,28.23c-.44,0-.84-.17-1.15-.48l-11.67-11.67c-.63-.64-.63-1.67,0-2.3l1.23-1.23c.31-.31.72-.48,1.15-.48s.84.17,1.15.48l11.67,11.67c.63.63.63,1.67,0,2.3l-1.23,1.23c-.31.31-.72.48-1.15.48Z"/>
      <path d="M14.93,13.07c.1,0,.28.02.45.18l11.67,11.67c.16.16.18.35.18.45s-.02.28-.18.45l-1.23,1.23c-.16.16-.35.18-.45.18s-.28-.02-.45-.18l-11.67-11.67c-.25-.25-.25-.64,0-.89l1.23-1.23c.16-.16.35-.18.45-.18M14.93,11.07c-.67,0-1.35.26-1.86.77l-1.23,1.23c-1.03,1.03-1.03,2.69,0,3.72l11.67,11.67c.51.51,1.19.77,1.86.77s1.35-.26,1.86-.77l1.23-1.23c1.03-1.03,1.03-2.69,0-3.72l-11.67-11.67c-.51-.51-1.19-.77-1.86-.77h0Z"/>
    </g>
    <g>
      <path d="M2.63,40.03h16.5c.9,0,1.63.73,1.63,1.63v1.74c0,.9-.73,1.63-1.63,1.63H2.63c-.9,0-1.63-.73-1.63-1.63v-1.74c0-.9.73-1.63,1.63-1.63Z"/>
      <path d="M19.13,41.03c.35,0,.63.28.63.63v1.74c0,.35-.28.63-.63.63H2.63c-.35,0-.63-.28-.63-.63v-1.74c0-.35.28-.63.63-.63h16.5M19.13,39.03H2.63c-1.45,0-2.63,1.18-2.63,2.63v1.74c0,1.45,1.18,2.63,2.63,2.63h16.5c1.45,0,2.63-1.18,2.63-2.63v-1.74c0-1.45-1.18-2.63-2.63-2.63h0Z"/>
    </g>
    <g>
      <path d="M14.93,72.99c-.44,0-.84-.17-1.15-.48l-1.23-1.23c-.63-.64-.63-1.67,0-2.3l11.67-11.67c.31-.31.72-.48,1.15-.48s.84.17,1.15.48l1.23,1.23c.63.63.63,1.67,0,2.3l-11.67,11.67c-.31.31-.72.48-1.15.48Z"/>
      <path d="M25.37,57.83c.1,0,.28.02.45.18l1.23,1.23c.25.25.25.64,0,.89l-11.67,11.67c-.16.16-.35.18-.45.18s-.28-.02-.45-.18l-1.23-1.23c-.25-.25-.25-.64,0-.89l11.67-11.67c.16-.16.35-.18.45-.18M25.37,55.83c-.67,0-1.35.26-1.86.77l-11.67,11.67c-1.03,1.03-1.03,2.69,0,3.72l1.23,1.23c.51.51,1.19.77,1.86.77s1.35-.26,1.86-.77l11.67-11.67c1.03-1.03,1.03-2.69,0-3.72l-1.23-1.23c-.51-.51-1.19-.77-1.86-.77h0Z"/>
    </g>
    <g>
      <path d="M41.66,64.3h1.74c.9,0,1.63.73,1.63,1.63v16.5c0,.9-.73,1.63-1.63,1.63h-1.74c-.9,0-1.63-.73-1.63-1.63v-16.5c0-.9.73-1.63,1.63-1.63Z"/>
      <path d="M43.4,65.3c.35,0,.63.28.63.63v16.5c0,.35-.28.63-.63.63h-1.74c-.35,0-.63-.28-.63-.63v-16.5c0-.35.28-.63.63-.63h1.74M43.4,63.3h-1.74c-1.45,0-2.63,1.18-2.63,2.63v16.5c0,1.45,1.18,2.63,2.63,2.63h1.74c1.45,0,2.63-1.18,2.63-2.63v-16.5c0-1.45-1.18-2.63-2.63-2.63h0Z"/>
    </g>
    <g>
      <path d="M70.13,72.99c-.44,0-.84-.17-1.15-.48l-11.67-11.67c-.63-.64-.63-1.67,0-2.3l1.23-1.23c.31-.31.72-.48,1.15-.48s.84.17,1.15.48l11.67,11.67c.63.63.63,1.67,0,2.3l-1.23,1.23c-.31.31-.72.48-1.15.48Z"/>
      <path d="M59.69,57.83c.1,0,.28.02.45.18l11.67,11.67c.25.25.25.64,0,.89l-1.23,1.23c-.16.16-.35.18-.45.18s-.28-.02-.45-.18l-11.67-11.67c-.25-.25-.25-.64,0-.89l1.23-1.23c.16-.16.35-.18.45-.18M59.69,55.83c-.67,0-1.35.26-1.86.77l-1.23,1.23c-1.03,1.03-1.03,2.69,0,3.72l11.67,11.67c.51.51,1.19.77,1.86.77s1.35-.26,1.86-.77l1.23-1.23c1.03-1.03,1.03-2.69,0-3.72l-11.67-11.67c-.51-.51-1.19-.77-1.86-.77h0Z"/>
    </g>
    <g>
      <path d="M65.93,40.03h16.5c.9,0,1.63.73,1.63,1.63v1.74c0,.9-.73,1.63-1.63,1.63h-16.5c-.9,0-1.63-.73-1.63-1.63v-1.74c0-.9.73-1.63,1.63-1.63Z"/>
      <path d="M82.43,41.03c.35,0,.63.28.63.63v1.74c0,.35-.28.63-.63.63h-16.5c-.35,0-.63-.28-.63-.63v-1.74c0-.35.28-.63.63-.63h16.5M82.43,39.03h-16.5c-1.45,0-2.63,1.18-2.63,2.63v1.74c0,1.45,1.18,2.63,2.63,2.63h16.5c1.45,0,2.63-1.18,2.63-2.63v-1.74c0-1.45-1.18-2.63-2.63-2.63h0Z"/>
    </g>
  </g>
</svg>