<?xml version="1.0" encoding="UTF-8"?>
<svg id="Layer_2" data-name="Layer 2" xmlns="http://www.w3.org/2000/svg" viewBox="0 0 25.42 25.18">
  <defs>
    <style>
      .cls-1 {
        fill: #888cce;
        stroke-width: 0px;
      }
    </style>
  </defs>
  <g id="Layer_1-2" data-name="Layer 1">
    <g>
      <path id="Shape" class="cls-1" d="M.02,11.9c-.21,3.9,1.39,7.47,4.02,9.93t.06.06c2.07,1.92,4.78,3.13,7.83,3.28,1.33.06,2.63-.09,3.87-.38h0c5.14-1.39,9.04-5.91,9.36-11.52.06-.89.03-1.74-.09-2.54-.12-.77-.27-1.48-.5-2.16-.5-3.16.27-5.58.83-6.88.12-.3-.15-.53-.44-.41-2.6.97-7.65-.35-7.65-.35-1.24-.47-2.6-.83-3.96-.89-3.31-.21-6.38.86-8.74,2.78C1.97,4.99.2,8.21.02,11.9ZM13.07,4.1c4.67.24,8.27,4.28,8,8.95-.24,4.67-4.28,8.27-8.95,8.01-4.67-.24-8.27-4.28-8-8.95.24-4.7,4.25-8.3,8.95-8.01Z"/>
      <path id="Path" class="cls-1" d="M15.46,9.89c0,1.36-1.09,2.45-2.45,2.45s-2.45-1.09-2.45-2.45,1.09-2.45,2.45-2.45,2.45,1.09,2.45,2.45Z"/>
    </g>
  </g>
</svg>