<?xml version="1.0" encoding="UTF-8"?>
<svg width="184px" height="26px" viewBox="0 0 184 26" version="1.1" xmlns="http://www.w3.org/2000/svg" xmlns:xlink="http://www.w3.org/1999/xlink">
    <!-- Generator: Sketch 55 (78076) - https://sketchapp.com -->
    <title>mobabaseline</title>
    <desc>Created with Sketch.</desc>
    <g id="Symbols" stroke="none" strokeWidth="1" fill="none" fillRule="evenodd">
        <g id="header/main" transform="translate(0.000000, -12.000000)" fill="#888CCE">
            <g id="Group-10">
                <g id="mobabaseline" transform="translate(0.000000, 12.000000)">
                    <g id="Group">
                        <path d="M25.4882825,0.236363636 L24.8385233,0.236363636 C24.4545746,0.236363636 24.2182986,0.472727273 23.9229535,0.768181818 L13.2905297,11.0795455 L13.2905297,11.0795455 C13.2609952,11.1386364 13.1723917,11.1681818 13.1133226,11.1681818 C13.0247191,11.1681818 12.9656501,11.1386364 12.9361156,11.0795455 L2.2741573,0.738636364 C1.9788122,0.443181818 1.74253612,0.206818182 1.35858748,0.206818182 L0.70882825,0.206818182 C0.354414125,0.206818182 0.0590690209,0.502272727 0.0590690209,0.856818182 L0.0590690209,25.3204545 C0.0590690209,25.675 0.354414125,25.9704545 0.70882825,25.9704545 L1.47672552,25.9704545 C1.83113965,25.9704545 2.12648475,25.675 2.12648475,25.3204545 L2.12648475,3.66363636 C2.12648475,3.60454545 2.18555377,3.575 2.21508828,3.575 C2.24462279,3.575 2.2741573,3.575 2.30369181,3.60454545 L12.1682183,13.0590909 C12.4340289,13.325 12.6998395,13.5613636 13.0837881,13.5613636 L13.2609952,13.5613636 C13.6449438,13.5613636 13.9107544,13.325 14.176565,13.0590909 L24.070626,3.54545455 C24.1001605,3.51590909 24.1001605,3.51590909 24.129695,3.51590909 C24.1592295,3.51590909 24.2182986,3.54545455 24.2182986,3.60454545 L24.2182986,25.35 C24.2182986,25.7045455 24.5136437,26 24.8680578,26 L25.6359551,26 C25.9903692,26 26.2857143,25.7045455 26.2857143,25.35 L26.2857143,0.886363636 C26.1380417,0.531818182 25.8426966,0.236363636 25.4882825,0.236363636 Z" id="Path"></path>
                        <path d="M83.4054575,12.9113636 C83.3463884,12.9113636 83.3168539,12.8818182 83.3168539,12.8227273 C83.3168539,12.7636364 83.3463884,12.7045455 83.4054575,12.6454545 C85.5910112,11.5227273 86.8905297,9.36590909 86.8905297,6.88409091 C86.8905297,3.575 84.5573034,0.236363636 79.329695,0.236363636 L68.3723917,0.236363636 C68.0179775,0.236363636 67.7226324,0.531818182 67.7226324,0.886363636 L67.7226324,25.35 C67.7226324,25.7045455 68.0179775,26 68.3723917,26 L80.4520064,26 C82.6080257,26 84.5277689,25.2613636 85.9158909,23.9613636 C87.2449438,22.6909091 87.9537721,20.9772727 87.9537721,19.1159091 C87.9242376,16.3090909 86.211236,13.9159091 83.4054575,12.9113636 Z M70.1444623,13.8272727 L80.2747994,13.8272727 C81.9287319,13.8272727 83.3463884,14.3590909 84.3800963,15.3636364 C85.3547352,16.3090909 85.8863563,17.55 85.8863563,18.9090909 C85.8863563,20.2681818 85.3547352,21.5681818 84.3800963,22.5136364 C83.3463884,23.5477273 81.9287319,24.0795455 80.2747994,24.0795455 L70.1444623,24.0795455 C69.9081862,24.0795455 69.7309791,23.9022727 69.7309791,23.6659091 L69.7309791,14.2409091 C69.7309791,14.0045455 69.9081862,13.8272727 70.1444623,13.8272727 Z M69.7309791,11.6704545 L69.7309791,2.6 C69.7309791,2.36363636 69.9081862,2.18636364 70.1444623,2.18636364 L79.211557,2.18636364 C83.0805778,2.18636364 84.823114,4.66818182 84.823114,7.09090909 C84.823114,9.51363636 83.0510433,12.0840909 79.7431782,12.0840909 L70.1444623,12.0840909 C69.9081862,12.0840909 69.7309791,11.9068182 69.7309791,11.6704545 Z" id="Shape" fillRule="nonzero"></path>
                        <path d="M107.476083,0.797727273 C107.298876,0.472727273 106.944462,0.236363636 106.590048,0.236363636 L105.674478,0.236363636 C105.320064,0.236363636 104.96565,0.443181818 104.788443,0.797727273 L93.5653291,25.3795455 C93.50626,25.4977273 93.50626,25.6454545 93.5653291,25.7636364 C93.6539326,25.8818182 93.7720706,25.9704545 93.9197432,25.9704545 L94.894382,25.9704545 C95.2487961,25.9704545 95.6032103,25.7340909 95.7508828,25.4090909 L97.9069021,20.5931818 C98.0250401,20.3568182 98.2613162,20.1795455 98.5271268,20.1795455 L113.707865,20.1795455 C113.973676,20.1795455 114.209952,20.3272727 114.32809,20.5931818 L116.543178,25.4090909 C116.690851,25.7340909 117.045265,25.9704545 117.399679,25.9704545 L118.344783,25.9704545 C118.492456,25.9704545 118.640128,25.8818182 118.699197,25.7636364 C118.758266,25.6454545 118.758266,25.4977273 118.699197,25.3795455 L107.476083,0.797727273 Z M113.058106,18.1409091 C112.999037,18.2 112.939968,18.2590909 112.851364,18.2590909 L99.3836276,18.2590909 C99.2950241,18.2590909 99.2064205,18.2295455 99.176886,18.1409091 C99.117817,18.0818182 99.117817,17.9636364 99.176886,17.9045455 L105.969823,2.86590909 C105.999358,2.80681818 106.058427,2.77727273 106.117496,2.77727273 C106.176565,2.77727273 106.235634,2.80681818 106.265169,2.86590909 L113.058106,17.9045455 C113.117175,17.9931818 113.117175,18.0818182 113.058106,18.1409091 Z" id="Shape" fillRule="nonzero"></path>
                        <path d="M142.504013,23.9613636 L128.740931,23.9613636 C128.504655,23.9613636 128.327448,23.7840909 128.327448,23.5477273 L128.327448,0.886363636 C128.327448,0.531818182 128.032103,0.236363636 127.677689,0.236363636 L126.909791,0.236363636 C126.555377,0.236363636 126.260032,0.531818182 126.260032,0.886363636 L126.260032,25.35 C126.260032,25.7045455 126.555377,26 126.909791,26 L142.474478,26 C142.828892,26 143.124238,25.7045455 143.124238,25.35 L143.124238,24.6409091 C143.153772,24.2568182 142.858427,23.9613636 142.504013,23.9613636 Z" id="Path"></path>
                        <path d="M152.486677,0.236363636 L151.71878,0.236363636 C151.364366,0.236363636 151.069021,0.531818182 151.069021,0.886363636 L151.069021,25.35 C151.069021,25.7045455 151.364366,26 151.71878,26 L152.486677,26 C152.841091,26 153.136437,25.7045455 153.136437,25.35 L153.136437,0.886363636 C153.136437,0.531818182 152.841091,0.236363636 152.486677,0.236363636 Z" id="Path"></path>
                        <path d="M179.333547,12.9113636 C179.274478,12.9113636 179.244944,12.8818182 179.244944,12.8227273 C179.244944,12.7636364 179.274478,12.7045455 179.333547,12.6454545 C181.519101,11.5227273 182.81862,9.36590909 182.81862,6.88409091 C182.81862,3.575 180.485393,0.236363636 175.257785,0.236363636 L164.300482,0.236363636 C163.946067,0.236363636 163.650722,0.531818182 163.650722,0.886363636 L163.650722,25.35 C163.650722,25.7045455 163.946067,26 164.300482,26 L176.380096,26 C178.536116,26 180.455859,25.2613636 181.843981,23.9613636 C183.173034,22.6909091 183.881862,20.9772727 183.881862,19.1159091 C183.881862,16.3090909 182.139326,13.9159091 179.333547,12.9113636 Z M166.102087,13.8272727 L176.232424,13.8272727 C177.886356,13.8272727 179.304013,14.3590909 180.337721,15.3636364 C181.31236,16.3090909 181.843981,17.55 181.843981,18.9090909 C181.843981,20.2681818 181.31236,21.5681818 180.337721,22.5136364 C179.304013,23.5477273 177.886356,24.0795455 176.232424,24.0795455 L166.102087,24.0795455 C165.865811,24.0795455 165.688604,23.9022727 165.688604,23.6659091 L165.688604,14.2409091 C165.688604,14.0045455 165.865811,13.8272727 166.102087,13.8272727 Z M165.688604,11.6704545 L165.688604,2.6 C165.688604,2.36363636 165.865811,2.18636364 166.102087,2.18636364 L175.169181,2.18636364 C179.038202,2.18636364 180.780738,4.66818182 180.780738,7.09090909 C180.780738,9.51363636 179.008668,12.0840909 175.700803,12.0840909 L166.102087,12.0840909 C165.865811,12.0840909 165.688604,11.9068182 165.688604,11.6704545 Z" id="Shape" fillRule="nonzero"></path>
                    </g>
                    <path d="M33.5512039,12.4977273 C33.3444623,16.3977273 34.9393258,19.9727273 37.5678973,22.425 C37.5974318,22.4545455 37.5974318,22.4545455 37.6269663,22.4840909 C39.694382,24.4045455 42.411557,25.6159091 45.4536116,25.7636364 C46.7826645,25.8227273 48.082183,25.675 49.3226324,25.3795455 C49.3226324,25.3795455 49.3226324,25.3795455 49.3226324,25.3795455 C54.4616372,23.9909091 58.3601926,19.4704545 58.6850722,13.8568182 C58.7441413,12.9704545 58.7146067,12.1136364 58.5964687,11.3159091 C58.4783307,10.5477273 58.3306581,9.83863636 58.094382,9.15909091 C57.5922953,5.99772727 58.3601926,3.575 58.9213483,2.275 C59.0394864,1.97954545 58.7736758,1.74318182 58.4783307,1.86136364 C55.8792937,2.83636364 50.8288925,1.50681818 50.8288925,1.50681818 C49.588443,1.03409091 48.2298555,0.679545455 46.8712681,0.620454545 C43.5634029,0.413636364 40.4918138,1.47727273 38.129053,3.39772727 C35.5004815,5.58409091 33.7284109,8.80454545 33.5512039,12.4977273 Z M46.6054575,4.69772727 C51.2719101,4.93409091 54.8751204,8.98181818 54.6093098,13.65 C54.3730337,18.3181818 50.3268058,21.9227273 45.6603531,21.6568182 C40.9939005,21.4204545 37.3906902,17.3727273 37.6565008,12.7045455 C37.8927769,8.00681818 41.9094703,4.40227273 46.6054575,4.69772727 Z" id="Shape" fillRule="nonzero"></path>
                    <path d="M48.9977528,10.4886364 C48.9977528,11.8477273 47.9049759,12.9409091 46.5463884,12.9409091 C45.187801,12.9409091 44.0950241,11.8477273 44.0950241,10.4886364 C44.0950241,9.12954545 45.187801,8.03636364 46.5463884,8.03636364 C47.8754414,8.03636364 48.9977528,9.12954545 48.9977528,10.4886364 Z" id="Path"></path>
                </g>
            </g>
        </g>
    </g>
</svg>